<svg width="100" height="100" viewBox="0 0 100 100" xmlns="http://www.w3.org/2000/svg" xmlns:xlink="http://www.w3.org/1999/xlink">

  <defs>
    <!-- Base gradient for the main badge - Deep Teal/Blue -->
    <linearGradient id="anesHDBadgeBase" x1="0%" y1="0%" x2="100%" y2="100%">
      <stop offset="0%" style="stop-color:#006064; stop-opacity:1" /> <!-- Dark Cyan -->
      <stop offset="100%" style="stop-color:#1A237E; stop-opacity:1" /> <!-- Indigo -->
    </linearGradient>
    <!-- Inner panel gradient - Lighter Teal -->
    <linearGradient id="anesHDFacet" x1="0%" y1="0%" x2="100%" y2="100%">
       <stop offset="0%" style="stop-color:#26A69A; stop-opacity:1" /> <!-- Medium Teal -->
       <stop offset="100%" style="stop-color:#00796B; stop-opacity:1" /> <!-- Teal -->
    </linearGradient>
    <!-- Border gradient - Bright Silver/Steel -->
    <linearGradient id="anesHDBorder" x1="0%" y1="0%" x2="0%" y2="100%">
      <stop offset="0%" style="stop-color:#ECEFF1; stop-opacity:1" /> <!-- Brightest silver -->
      <stop offset="50%" style="stop-color:#B0BEC5; stop-opacity:1" />
      <stop offset="100%" style="stop-color:#78909C; stop-opacity:1" /> <!-- Darker silver -->
    </linearGradient>
    <!-- Syringe Plastic gradient - Clear with highlights -->
    <linearGradient id="syringePlasticGradient" x1="0%" y1="0%" x2="0%" y2="100%">
       <stop offset="0%" style="stop-color:white; stop-opacity:0.3;" />
       <stop offset="30%" style="stop-color:white; stop-opacity:0.1;" />
       <stop offset="70%" style="stop-color:white; stop-opacity:0.1;" />
       <stop offset="100%" style="stop-color:white; stop-opacity:0.4;" />
    </linearGradient>
     <!-- Syringe Plunger/Liquid (Propofol White) -->
     <linearGradient id="syringeLiquidGradient" x1="0%" y1="0%" x2="0%" y2="100%">
       <stop offset="0%" style="stop-color:#FFFDE7; stop-opacity:1" /> <!-- Creamy white -->
       <stop offset="100%" style="stop-color:#FFF8E1; stop-opacity:0.95" />
     </linearGradient>
    <!-- LMA Material Gradient - Soft Silicone/Plastic -->
    <linearGradient id="lmaMaterialGradient" x1="0%" y1="0%" x2="100%" y2="100%">
       <stop offset="0%" style="stop-color:#E0F7FA; stop-opacity:0.9" /> <!-- Very Light Cyan -->
       <stop offset="50%" style="stop-color:#B2EBF2; stop-opacity:0.8" /> <!-- Light Cyan -->
       <stop offset="100%" style="stop-color:#80DEEA; stop-opacity:0.9" /> <!-- Cyan -->
    </linearGradient>
    <!-- Highlight effect -->
    <radialGradient id="anesHighlightShine" cx="70%" cy="30%" r="80%">
        <stop offset="0%" style="stop-color:white; stop-opacity:0.35;"/>
        <stop offset="100%" style="stop-color:white; stop-opacity:0;"/>
    </radialGradient>
     <!-- Subtle Waveform Color -->
    <color id="waveformColor">#80DEEA</color> <!-- Cyan -->
  </defs>

  <!-- Badge Structure -->
  <g>
    <!-- Outermost Border -->
    <path d="M 50,3 L 90,15 L 97,50 L 90,85 L 50,97 L 10,85 L 3,50 L 10,15 Z"
          fill="url(#anesHDBorder)" stroke="#546E7A" stroke-width="1"/>
    <!-- Mid Layer Border -->
     <path d="M 50,6 L 87,17 L 93,50 L 87,83 L 50,94 L 13,83 L 7,50 L 13,17 Z"
          fill="url(#anesHDBadgeBase)" stroke="#78909C" stroke-width="0.5"/>
    <!-- Inner Panel Layer -->
    <path d="M 50,12
             L 80,22 L 85,50 L 80,78 L 50,88 L 20,78 L 15,50 L 20,22 Z"
          fill="url(#anesHDFacet)" stroke="#B2EBF2" stroke-width="0.7"/>
     <!-- Innermost Base -->
      <path d="M 50,15
             L 78,25 L 82,50 L 78,75 L 50,85 L 22,75 L 18,50 L 22,25 Z"
          fill="url(#anesHDBadgeBase)" />
  </g>

  <!-- Subtle Background Waveform -->
   <path d="M 25 65 L 35 65 L 40 55 L 48 75 L 52 60 L 58 65 L 75 65"
          stroke="#waveformColor" stroke-width="1.5" fill="none" opacity="0.3" stroke-dasharray="2 2"/>

  <!-- Central Symbol: Detailed LMA + Syringe -->
  <g transform="translate(0, 0)"> <!-- Adjust position slightly if needed -->

     <!-- Detailed Syringe -->
     <g transform="translate(50 50) rotate(45) scale(0.9)"> <!-- Position, rotate, and scale -->
         <!-- Barrel -->
         <rect x="-30" y="-5" width="60" height="10" rx="2" ry="2" fill="#FFFFFF" fill-opacity="0.1" stroke="#90A4AE" stroke-width="0.5"/>
         <rect x="-29" y="-4" width="58" height="8" rx="1" ry="1" fill="url(#syringePlasticGradient)"/>
         <!-- Liquid/Plunger inside barrel -->
         <rect x="-28" y="-3" width="45" height="6" fill="url(#syringeLiquidGradient)"/>
          <!-- Measurement Lines -->
         <g stroke="#455A64" stroke-width="0.3" opacity="0.7">
            <line x1="-20" y1="-5" x2="-20" y2="5"/> <line x1="-10" y1="-5" x2="-10" y2="5"/> <line x1="0" y1="-5" x2="0" y2="5"/> <line x1="10" y1="-5" x2="10" y2="5"/>
         </g>
         <!-- Plunger End -->
         <rect x="17" y="-4" width="10" height="8" fill="#78909C"/> <!-- Rubber part -->
          <rect x="27" y="-6" width="5" height="12" fill="#B0BEC5"/> <!-- Stem -->
          <rect x="32" y="-8" width="5" height="16" rx="2" ry="2" fill="#B0BEC5"/> <!-- Thumb push -->
         <!-- Tip / Luer Lock -->
         <path d="M -30,-5 L -35,-3 L -35,3 L -30,5 Z" fill="#B0BEC5" stroke="#78909C" stroke-width="0.5"/>
     </g>

      <!-- Detailed LMA (Laryngeal Mask Airway) -->
       <g transform="translate(50 50) rotate(-25) scale(0.8)"> <!-- Position, rotate, and scale -->
          <!-- Tube -->
          <path d="M 0,-30 C 0,-10 10,0 15,10 L 10,15 C 5,10 -5,0 -5,-20 Z" fill="url(#lmaMaterialGradient)" stroke="#4DD0E1" stroke-width="0.8"/>
          <!-- Connector Port -->
          <rect x="-10" y="-35" width="20" height="8" rx="1" ry="1" fill="#78909C" stroke="#546E7A" stroke-width="0.5"/>
          <rect x="-9" y="-34" width="18" height="6" rx="0.5" ry="0.5" fill="#B0BEC5"/>
          <!-- Mask Bowl -->
          <ellipse cx="17" cy="25" rx="18" ry="12" fill="url(#lmaMaterialGradient)" stroke="#4DD0E1" stroke-width="1"/>
          <!-- Inflatable Cuff -->
          <ellipse cx="17" cy="25" rx="20" ry="14" fill="none" stroke="url(#lmaMaterialGradient)" stroke-width="3" stroke-opacity="0.7"/>
           <!-- Aperture Bars (optional detail) -->
          <line x1="10" y1="20" x2="24" y2="30" stroke="#4DD0E1" stroke-width="0.7" stroke-opacity="0.8"/>
          <line x1="24" y1="20" x2="10" y2="30" stroke="#4DD0E1" stroke-width="0.7" stroke-opacity="0.8"/>
          <!-- Pilot Balloon Tube (thin line) -->
           <path d="M 0 -20 C -15 -10, -15 20, -5 25" fill="none" stroke="#80DEEA" stroke-width="0.8" stroke-dasharray="2 1"/>
           <circle cx="-7" cy="26" r="2" fill="#80DEEA"/> <!-- Pilot balloon -->
       </g>

  </g>

  <!-- Overall Highlight Sheen -->
  <path d="M 50,12
             L 80,22 L 85,50 L 80,78 L 50,88 L 20,78 L 15,50 L 20,22 Z"
          fill="url(#anesHighlightShine)"/>

</svg>