<svg width="100" height="100" viewBox="0 0 100 100" xmlns="http://www.w3.org/2000/svg" xmlns:xlink="http://www.w3.org/1999/xlink">

  <defs>
    <!-- Base gradient for the main badge - Deep Indigo/Blue -->
    <linearGradient id="biostatHDBadgeBase" x1="0%" y1="0%" x2="100%" y2="100%">
      <stop offset="0%" style="stop-color:#303F9F; stop-opacity:1" /> <!-- Indigo -->
      <stop offset="100%" style="stop-color:#1A237E; stop-opacity:1" /> <!-- Darker Indigo -->
    </linearGradient>
    <!-- Inner panel gradient - Lighter Blue/Teal -->
    <linearGradient id="biostatHDFacet" x1="0%" y1="0%" x2="100%" y2="100%">
       <stop offset="0%" style="stop-color:#4FC3F7; stop-opacity:1" /> <!-- Light Blue -->
       <stop offset="100%" style="stop-color:#0097A7; stop-opacity:1" /> <!-- Cyan -->
    </linearGradient>
    <!-- Border gradient - Bright Gold -->
    <linearGradient id="biostatHDBorder" x1="0%" y1="0%" x2="0%" y2="100%">
      <stop offset="0%" style="stop-color:#FFEE58; stop-opacity:1" /> <!-- Bright Yellow -->
      <stop offset="50%" style="stop-color:#FBC02D; stop-opacity:1" /> <!-- Amber -->
      <stop offset="100%" style="stop-color:#FFA000; stop-opacity:1" /> <!-- Orange/Gold -->
    </linearGradient>
    <!-- Bell Curve gradient - Glowing White/Cyan -->
    <linearGradient id="bellCurveGradient" x1="0%" y1="0%" x2="0%" y2="100%">
       <stop offset="0%" style="stop-color:white; stop-opacity:1;" />
       <stop offset="100%" style="stop-color:#E0F7FA; stop-opacity:0.9;" /> <!-- Light Cyan tint -->
    </linearGradient>
     <!-- DNA Helix gradient - Green/Teal tones -->
     <linearGradient id="dnaGradient" x1="0%" y1="0%" x2="100%" y2="0%">
       <stop offset="0%" style="stop-color:#66BB6A; stop-opacity:1" /> <!-- Light Green -->
       <stop offset="50%" style="stop-color:#43A047; stop-opacity:1" /> <!-- Medium Green -->
       <stop offset="100%" style="stop-color:#26A69A; stop-opacity:1" /> <!-- Teal -->
     </linearGradient>
    <!-- Highlight effect -->
    <radialGradient id="biostatHighlightShine" cx="50%" cy="25%" r="75%">
        <stop offset="0%" style="stop-color:white; stop-opacity:0.3;"/>
        <stop offset="100%" style="stop-color:white; stop-opacity:0;"/>
    </radialGradient>
     <!-- Subtle Background Grid Color -->
    <color id="gridColor">#4FC3F7</color> <!-- Light Blue -->
  </defs>

  <!-- Badge Structure -->
  <g>
    <!-- Outermost Border -->
    <path d="M 50,3 L 95,20 L 95,80 L 50,97 L 5,80 L 5,20 Z"
          fill="url(#biostatHDBorder)" stroke="#B8860B" stroke-width="1"/>
    <!-- Mid Layer Border/Inset -->
     <path d="M 50,7 L 90,23 L 90,77 L 50,93 L 10,77 L 10,23 Z"
          fill="url(#biostatHDBadgeBase)" stroke="#FBC02D" stroke-width="0.5"/>
    <!-- Inner Faceted Layer -->
    <path d="M 50,12
             L 85,28 L 85,72 L 50,88 L 15,72 L 15,28 Z"
          fill="url(#biostatHDFacet)" stroke="#B2EBF2" stroke-width="0.7"/>
     <!-- Innermost Base -->
      <path d="M 50,15
             L 82,30 L 82,70 L 50,85 L 18,70 L 18,30 Z"
          fill="url(#biostatHDBadgeBase)" />
  </g>

   <!-- Subtle Background Grid -->
   <g opacity="0.15" stroke="#gridColor" stroke-width="0.5">
        <line x1="20" y1="10" x2="20" y2="90"/> <line x1="30" y1="10" x2="30" y2="90"/> <line x1="40" y1="10" x2="40" y2="90"/>
        <line x1="50" y1="10" x2="50" y2="90"/> <line x1="60" y1="10" x2="60" y2="90"/> <line x1="70" y1="10" x2="70" y2="90"/> <line x1="80" y1="10" x2="80" y2="90"/>
        <line x1="10" y1="30" x2="90" y2="30"/> <line x1="10" y1="40" x2="90" y2="40"/> <line x1="10" y1="50" x2="90" y2="50"/>
        <line x1="10" y1="60" x2="90" y2="60"/> <line x1="10" y1="70" x2="90" y2="70"/>
   </g>

  <!-- Central Symbol: Detailed Bell Curve + DNA Helix -->
  <g transform="translate(0, 0)"> <!-- Adjust position slightly if needed -->

      <!-- Bell Curve -->
       <path d="M 25 80 C 35 80, 30 50, 50 30 C 70 50, 65 80, 75 80 Z"
             fill="url(#bellCurveGradient)" stroke="#81D4FA" stroke-width="1.5" />
       <!-- Mean line indicator -->
       <line x1="50" y1="30" x2="50" y2="80" stroke="#4FC3F7" stroke-width="1" stroke-dasharray="2 2" opacity="0.7"/>


      <!-- Detailed DNA Helix (Intertwined) -->
      <g stroke-width="1" fill="url(#dnaGradient)" stroke="#1B5E20">
          <!-- Strand 1 (Partially behind curve) -->
          <path d="M 40 25 C 55 40, 45 60, 60 75" fill="none" stroke="url(#dnaGradient)" stroke-width="3.5"/>
          <!-- Strand 2 (Partially in front of curve) -->
           <path d="M 60 25 C 45 40, 55 60, 40 75" fill="none" stroke="url(#dnaGradient)" stroke-width="3.5"/>

           <!-- Base Pairs (Lines connecting the strands) -->
           <line x1="41" y1="28" x2="59" y2="28" />
           <line x1="44" y1="35" x2="56" y2="35" />
           <line x1="47.5" y1="43" x2="52.5" y2="43" />
           <line x1="50" y1="50" x2="50" y2="50" stroke-width="1.5"/> <!-- Center point -->
           <line x1="47.5" y1="57" x2="52.5" y2="57" />
           <line x1="44" y1="65" x2="56" y2="65" />
           <line x1="41" y1="72" x2="59" y2="72" />
      </g>
       <!-- Highlight on front DNA strand -->
       <path d="M 60 25 C 45 40, 55 60, 40 75" fill="none" stroke="white" stroke-width="1" stroke-opacity="0.4"/>

  </g>

  <!-- Overall Highlight Sheen -->
  <path d="M 50,12
             L 85,28 L 85,72 L 50,88 L 15,72 L 15,28 Z"
          fill="url(#biostatHighlightShine)"/>

</svg>