<svg width="100" height="100" viewBox="0 0 100 100" xmlns="http://www.w3.org/2000/svg" xmlns:xlink="http://www.w3.org/1999/xlink">

  <defs>
    <!-- Base gradient for the main badge - Deep comforting Green -->
    <linearGradient id="fmHDBadgeBase" x1="0%" y1="0%" x2="100%" y2="100%">
      <stop offset="0%" style="stop-color:#2E7D32; stop-opacity:1" /> <!-- Dark Green -->
      <stop offset="100%" style="stop-color:#1B5E20; stop-opacity:1" /> <!-- Darker Green -->
    </linearGradient>
    <!-- Inner panel gradient - Lighter Warm Green -->
    <linearGradient id="fmHDFacet" x1="0%" y1="0%" x2="100%" y2="100%">
       <stop offset="0%" style="stop-color:#66BB6A; stop-opacity:1" /> <!-- Medium Green -->
       <stop offset="100%" style="stop-color:#4CAF50; stop-opacity:1" /> <!-- Green -->
    </linearGradient>
    <!-- Border gradient - Warm Gold/Bronze -->
    <linearGradient id="fmHDBorder" x1="0%" y1="0%" x2="0%" y2="100%">
      <stop offset="0%" style="stop-color:#FFECB3; stop-opacity:1" /> <!-- Pale Yellow/Gold -->
      <stop offset="50%" style="stop-color:#FFA000; stop-opacity:1" /> <!-- Orange/Gold -->
      <stop offset="100%" style="stop-color:#E65100; stop-opacity:1" /> <!-- Deep Orange/Bronze -->
    </linearGradient>
    <!-- Stethoscope Metal gradient - Shiny Steel -->
    <linearGradient id="fmStethMetalGradient" x1="0%" y1="0%" x2="80%" y2="100%">
       <stop offset="0%" style="stop-color:#FFFFFF; stop-opacity:1" />
       <stop offset="40%" style="stop-color:#E0E0E0; stop-opacity:1" />
       <stop offset="100%" style="stop-color:#BDBDBD; stop-opacity:1" />
    </linearGradient>
     <!-- Stethoscope Tubing gradient - Dark Grey/Rubber -->
     <linearGradient id="fmStethTubeGradient" x1="0%" y1="0%" x2="0%" y2="100%">
       <stop offset="0%" style="stop-color:#616161; stop-opacity:1" />
       <stop offset="50%" style="stop-color:#424242; stop-opacity:1" />
       <stop offset="100%" style="stop-color:#616161; stop-opacity:1" />
     </linearGradient>
    <!-- House Material Gradient - Warm Wood/Stone -->
    <linearGradient id="houseMaterialGradient" x1="0%" y1="0%" x2="100%" y2="100%">
       <stop offset="0%" style="stop-color:#FFCCBC; stop-opacity:1" /> <!-- Light Peach -->
       <stop offset="50%" style="stop-color:#FFAB91; stop-opacity:1" /> <!-- Peach -->
       <stop offset="100%" style="stop-color:#FF8A65; stop-opacity:1" /> <!-- Darker Peach/Orange -->
    </linearGradient>
     <!-- Heart Color -->
     <color id="heartColorFM">#E53935</color> <!-- Medium Red -->
    <!-- Highlight effect -->
    <radialGradient id="fmHighlightShine" cx="30%" cy="30%" r="70%">
        <stop offset="0%" style="stop-color:white; stop-opacity:0.3;"/>
        <stop offset="100%" style="stop-color:white; stop-opacity:0;"/>
    </radialGradient>
  </defs>

  <!-- Badge Structure -->
  <g>
    <!-- Outermost Border -->
    <path d="M 50,3 C 80,10 97,30 97,50 C 97,70 80,90 50,97 C 20,90 3,70 3,50 C 3,30 20,10 50,3 Z"
          fill="url(#fmHDBorder)" stroke="#A0522D" stroke-width="1"/> <!-- Sienna stroke for bronze -->
    <!-- Mid Layer Border/Inset -->
     <path d="M 50,7 C 75,13 92,32 92,50 C 92,68 75,87 50,93 C 25,87 8,68 8,50 C 8,32 25,13 50,7 Z"
          fill="url(#fmHDBadgeBase)" stroke="#FFA000" stroke-width="0.5"/>
    <!-- Inner Panel Layer -->
    <path d="M 50,12 C 70,18 85,35 85,50 C 85,65 70,82 50,88 C 30,82 15,65 15,50 C 15,35 30,18 50,12 Z"
          fill="url(#fmHDFacet)" stroke="#A5D6A7" stroke-width="0.7"/>
     <!-- Innermost Base -->
      <path d="M 50,15 C 68,21 82,37 82,50 C 82,63 68,79 50,85 C 32,79 18,63 18,50 C 18,37 32,21 50,15 Z"
          fill="url(#fmHDBadgeBase)" />
  </g>

  <!-- Central Symbol: Detailed House + Stethoscope -->
  <g transform="translate(0, -2)"> <!-- Adjust position slightly -->

      <!-- Stethoscope Tubing (Behind House) -->
      <path d="M 30,35 C 15,50 15,70 35,80" stroke="url(#fmStethTubeGradient)" stroke-width="5" fill="none" stroke-linecap="round"/>
      <path d="M 70,35 C 85,50 85,70 65,80" stroke="url(#fmStethTubeGradient)" stroke-width="5" fill="none" stroke-linecap="round"/>

       <!-- Stylized House -->
       <g>
           <!-- Main House Body -->
           <path d="M 35 55 L 35 80 L 65 80 L 65 55 Z" fill="url(#houseMaterialGradient)" stroke="#D84315" stroke-width="1"/>
           <!-- Roof -->
           <path d="M 30 55 L 50 35 L 70 55 Z" fill="url(#houseMaterialGradient)" stroke="#D84315" stroke-width="1"/>
           <!-- Small Heart Chimney/Window -->
            <path d="M 50,42
                     C 48,40 46,41 46,44
                     C 46,47 50,49 50,49
                     C 50,49 54,47 54,44
                     C 54,41 52,40 50,42 Z" fill="#heartColorFM" stroke="#B71C1C" stroke-width="0.5"/>
           <!-- Subtle Door Outline -->
           <rect x="45" y="65" width="10" height="15" fill="none" stroke="#F57C00" stroke-width="0.7" stroke-dasharray="2 1" opacity="0.8"/>
       </g>

      <!-- Stethoscope Bell/Diaphragm (In Front) -->
       <g transform="translate(50, 82)"> <!-- Position below the house -->
           <!-- Diaphragm (Larger Back Circle) -->
           <circle cx="0" cy="0" r="8" fill="url(#fmStethMetalGradient)" stroke="#546E7A" stroke-width="1"/>
           <!-- Bell (Smaller Front Circle) -->
           <circle cx="0" cy="0" r="5" fill="#78909C" stroke="#455A64" stroke-width="0.5"/>
           <!-- Highlight -->
            <circle cx="-2" cy="-2" r="2" fill="white" opacity="0.6"/>
       </g>
       <!-- Stethoscope Earpieces (Top) -->
       <g>
          <circle cx="30" cy="35" r="4" fill="url(#fmStethMetalGradient)" stroke="#546E7A" stroke-width="0.8"/>
          <circle cx="70" cy="35" r="4" fill="url(#fmStethMetalGradient)" stroke="#546E7A" stroke-width="0.8"/>
       </g>

  </g>

  <!-- Overall Highlight Sheen -->
   <path d="M 50,12 C 70,18 85,35 85,50 C 85,65 70,82 50,88 C 30,82 15,65 15,50 C 15,35 30,18 50,12 Z"
          fill="url(#fmHighlightShine)"/>

</svg>