<svg width="100" height="100" viewBox="0 0 100 100" xmlns="http://www.w3.org/2000/svg" xmlns:xlink="http://www.w3.org/1999/xlink">

  <defs>
    <!-- Gradient for the main badge body - Steel Blue -->
    <linearGradient id="surgeryBadgeGradient" x1="0%" y1="0%" x2="0%" y2="100%">
      <stop offset="0%" style="stop-color:#607D8B; stop-opacity:1" /> <!-- Blue Grey -->
      <stop offset="100%" style="stop-color:#37474F; stop-opacity:1" /> <!-- Darker Blue Grey -->
    </linearGradient>
    <!-- Gradient for the border - Silver/Grey -->
    <linearGradient id="surgeryBorderGradient" x1="0%" y1="0%" x2="0%" y2="100%">
      <stop offset="0%" style="stop-color:#B0BEC5; stop-opacity:1" />
      <stop offset="100%" style="stop-color:#78909C; stop-opacity:1" />
    </linearGradient>
    <!-- Gradient for Metal Tools -->
    <linearGradient id="toolMetalGradient" x1="0%" y1="0%" x2="100%" y2="100%">
      <stop offset="0%" style="stop-color:#ECEFF1; stop-opacity:1" /> <!-- Very Light Grey -->
      <stop offset="50%" style="stop-color:#B0BEC5; stop-opacity:1" /> <!-- Medium Grey -->
      <stop offset="100%" style="stop-color:#90A4AE; stop-opacity:1" /> <!-- Darker Grey -->
    </linearGradient>
  </defs>

  <!-- Badge Border -->
  <path d="M 50,5
           L 95,30
           L 85,80
           Q 80,95 50,95
           Q 20,95 15,80
           L 5,30
           Z"
        fill="url(#surgeryBorderGradient)" stroke="#455A64" stroke-width="2"/>

  <!-- Main Badge Shape -->
  <path d="M 50,10
           L 90,33
           L 81,78
           Q 77,90 50,90
           Q 23,90 19,78
           L 10,33
           Z"
        fill="url(#surgeryBadgeGradient)" />

  <!-- Surgical Tools (Crossed Scalpel and Scissors) -->
  <g transform="translate(0, 0)">

    <!-- Surgical Scissors (rotated -45 deg) -->
    <g transform="rotate(-45 50 50) translate(0, 0)">
      <!-- Handle Loops -->
      <ellipse cx="35" cy="50" rx="7" ry="5" fill="none" stroke="url(#toolMetalGradient)" stroke-width="2.5"/>
      <ellipse cx="35" cy="65" rx="7" ry="5" fill="none" stroke="url(#toolMetalGradient)" stroke-width="2.5"/>
      <!-- Shanks -->
      <line x1="40" y1="53" x2="55" y2="58" stroke="url(#toolMetalGradient)" stroke-width="3" stroke-linecap="round"/>
      <line x1="40" y1="62" x2="55" y2="58" stroke="url(#toolMetalGradient)" stroke-width="3" stroke-linecap="round"/>
      <!-- Blades -->
      <path d="M 55 58 L 75 53" stroke="url(#toolMetalGradient)" stroke-width="2.5" stroke-linecap="round" fill="none"/>
      <path d="M 55 58 L 75 63" stroke="url(#toolMetalGradient)" stroke-width="2.5" stroke-linecap="round" fill="none"/>
      <!-- Pivot -->
      <circle cx="55" cy="58" r="2" fill="#78909C" stroke="#546E7A"/>
    </g>

    <!-- Scalpel (rotated 45 deg) -->
    <g transform="rotate(45 50 50) translate(0, 5)">
       <!-- Handle -->
       <rect x="30" y="47.5" width="35" height="5" rx="1" ry="1" fill="url(#toolMetalGradient)" stroke="#546E7A" stroke-width="0.5"/>
       <!-- Blade -->
       <path d="M 65,50 C 72,50 75,47 80,47 L 85,49 L 80,53 L 75,53 C 70,53 65,51 65,50 Z" fill="url(#toolMetalGradient)" stroke="#607D8B" stroke-width="0.7"/>
    </g>

  </g>

</svg>