<svg width="100" height="100" viewBox="0 0 100 100" xmlns="http://www.w3.org/2000/svg" xmlns:xlink="http://www.w3.org/1999/xlink">

  <defs>
    <!-- Gradient for the main badge body - Warm Brown -->
    <linearGradient id="geriaBadgeGradient" x1="0%" y1="0%" x2="0%" y2="100%">
      <stop offset="0%" style="stop-color:#A1887F; stop-opacity:1" /> <!-- Brown Grey -->
      <stop offset="100%" style="stop-color:#795548; stop-opacity:1" /> <!-- Brown -->
    </linearGradient>
    <!-- Gradient for the border - Bronze/Gold -->
    <linearGradient id="geriaBorderGradient" x1="0%" y1="0%" x2="0%" y2="100%">
      <stop offset="0%" style="stop-color:#FBC02D; stop-opacity:1" /> <!-- Amber -->
      <stop offset="100%" style="stop-color:#C49000; stop-opacity:1" /> <!-- Darker Gold/Bronze -->
    </linearGradient>
    <!-- Gradient for the Cane - Light Wood/Silver -->
    <linearGradient id="caneGradient" x1="0%" y1="0%" x2="100%" y2="0%">
       <stop offset="0%" style="stop-color:#E0E0E0; stop-opacity:1" /> <!-- Light Grey -->
       <stop offset="50%" style="stop-color:#FFFFFF; stop-opacity:1" /> <!-- White highlight -->
       <stop offset="100%" style="stop-color:#BDBDBD; stop-opacity:1" /> <!-- Medium Grey -->
    </linearGradient>
  </defs>

  <!-- Badge Border -->
  <path d="M 50,5
           L 90,25
           C 95,50 85,75 85,80
           L 65,95 L 35,95 L 15,80
           C 15,75 5,50 10,25
           Z"
        fill="url(#geriaBorderGradient)" stroke="#876400" stroke-width="1.5"/>

  <!-- Main Badge Shape (Slightly smaller inset) -->
  <path d="M 50,10
           L 85,30
           C 89,50 81,73 81,77
           L 63,90 L 37,90 L 19,77
           C 19,73 11,50 15,30
           Z"
        fill="url(#geriaBadgeGradient)" />

  <!-- Stylized Walking Cane -->
  <g transform="translate(0, -3)"> <!-- Adjust vertical position -->
      <!-- Shaft -->
      <rect x="47" y="28" width="6" height="52" rx="2" ry="2"
            fill="url(#caneGradient)" stroke="#757575" stroke-width="0.7"/>
      <!-- Handle -->
      <path d="M 47 30 Q 47 15 60 15 T 73 30"
            stroke="url(#caneGradient)" stroke-width="7" stroke-linecap="round" fill="none"/>
      <!-- Ferrule (Tip) -->
       <ellipse cx="50" cy="80" rx="4" ry="2" fill="#616161" stroke="#424242" stroke-width="0.5"/>
  </g>

</svg>