<svg width="100" height="100" viewBox="0 0 100 100" xmlns="http://www.w3.org/2000/svg" xmlns:xlink="http://www.w3.org/1999/xlink">

  <defs>
    <!-- Base gradient for the main badge - Authoritative Deep Blue/Purple -->
    <linearGradient id="adminHDBadgeBase" x1="0%" y1="0%" x2="100%" y2="100%">
      <stop offset="0%" style="stop-color:#3F51B5; stop-opacity:1" /> <!-- Indigo -->
      <stop offset="100%" style="stop-color:#283593; stop-opacity:1" /> <!-- Darker Indigo -->
    </linearGradient>
    <!-- Inner panel gradient - Lighter Structural Blue -->
    <linearGradient id="adminHDFacet" x1="0%" y1="0%" x2="100%" y2="100%">
       <stop offset="0%" style="stop-color:#64B5F6; stop-opacity:1" /> <!-- Light Blue -->
       <stop offset="100%" style="stop-color:#42A5F5; stop-opacity:1" /> <!-- Blue -->
    </linearGradient>
    <!-- Border gradient - Polished Steel/Silver -->
    <linearGradient id="adminHDBorder" x1="0%" y1="0%" x2="0%" y2="100%">
      <stop offset="0%" style="stop-color:#ECEFF1; stop-opacity:1" /> <!-- Brightest silver -->
      <stop offset="50%" style="stop-color:#B0BEC5; stop-opacity:1" />
      <stop offset="100%" style="stop-color:#78909C; stop-opacity:1" /> <!-- Darker silver -->
    </linearGradient>
    <!-- Org Chart/Lines gradient - Glowing White/Cyan -->
    <linearGradient id="orgChartGradient" x1="0%" y1="0%" x2="0%" y2="100%">
       <stop offset="0%" style="stop-color:white; stop-opacity:1;" />
       <stop offset="100%" style="stop-color:#E0F7FA; stop-opacity:0.9;" />
    </linearGradient>
     <!-- Subtle Building Silhouette Color -->
     <color id="buildingSilhouetteColor">#7986CB</color> <!-- Muted Indigo -->
     <!-- Subtle Graph Color -->
     <color id="graphColor">#90CAF9</color> <!-- Pale Blue -->
    <!-- Highlight effect -->
    <radialGradient id="adminHighlightShine" cx="50%" cy="20%" r="80%">
        <stop offset="0%" style="stop-color:white; stop-opacity:0.35;"/>
        <stop offset="100%" style="stop-color:white; stop-opacity:0;"/>
    </radialGradient>
  </defs>

  <!-- Badge Structure -->
  <g>
    <!-- Outermost Border -->
    <path d="M 50,3 L 95,25 L 90,50 L 95,75 L 50,97 L 5,75 L 10,50 L 5,25 Z"
          fill="url(#adminHDBorder)" stroke="#546E7A" stroke-width="1"/>
    <!-- Mid Layer Border/Bevel -->
     <path d="M 50,7 L 90,28 L 86,50 L 90,72 L 50,93 L 10,72 L 14,50 L 10,28 Z"
          fill="url(#adminHDBadgeBase)" stroke="#90A4AE" stroke-width="0.5"/>
    <!-- Inner Panel Layer -->
    <path d="M 50,12 L 85,32 L 82,50 L 85,68 L 50,88 L 15,68 L 18,50 L 15,32 Z"
          fill="url(#adminHDFacet)" stroke="#E3F2FD" stroke-width="0.7"/>
     <!-- Innermost Base -->
      <path d="M 50,15 L 82,35 L 79,50 L 82,65 L 50,85 L 18,65 L 21,50 L 18,35 Z"
          fill="url(#adminHDBadgeBase)" />
  </g>

   <!-- Subtle Background Elements -->
   <g opacity="0.3">
        <!-- Hospital Building Silhouette -->
        <path d="M 30 80 L 30 50 L 40 50 L 40 40 L 60 40 L 60 50 L 70 50 L 70 80 Z" fill="#buildingSilhouetteColor"/>
        <path d="M 45 80 L 45 60 L 55 60 L 55 80 Z" fill="#5C6BC0"/> <!-- Door area -->
        <rect x="42" y="42" width="5" height="5" fill="#5C6BC0"/> <rect x="53" y="42" width="5" height="5" fill="#5C6BC0"/> <!-- Windows -->

        <!-- Upward Graph Trend -->
        <polyline points="65,75 70,70 75,72 80,65 85,68" fill="none" stroke="#graphColor" stroke-width="1.5"/>
   </g>

  <!-- Central Symbol: Detailed Organizational Chart -->
  <g transform="translate(0, -5)"> <!-- Adjust position slightly -->
      <g stroke="url(#orgChartGradient)" stroke-width="1.5" fill="url(#orgChartGradient)">
          <!-- Top Box -->
          <rect x="42" y="25" width="16" height="8" rx="1" ry="1" stroke-width="1"/>
          <!-- Connecting Lines -->
          <line x1="50" y1="33" x2="50" y2="40"/>
          <line x1="35" y1="40" x2="65" y2="40"/>
          <line x1="35" y1="40" x2="35" y2="45"/>
          <line x1="50" y1="40" x2="50" y2="45"/>
          <line x1="65" y1="40" x2="65" y2="45"/>

          <!-- Mid Level Boxes -->
          <rect x="27" y="45" width="16" height="8" rx="1" ry="1" stroke-width="1"/>
          <rect x="42" y="45" width="16" height="8" rx="1" ry="1" stroke-width="1"/>
          <rect x="57" y="45" width="16" height="8" rx="1" ry="1" stroke-width="1"/>

           <!-- Connecting Lines Down -->
          <line x1="35" y1="53" x2="35" y2="60"/>
           <line x1="50" y1="53" x2="50" y2="60"/>
           <line x1="65" y1="53" x2="65" y2="60"/>
           <line x1="25" y1="60" x2="75" y2="60"/>

           <!-- Bottom Indicators (dots or smaller boxes) -->
            <circle cx="25" cy="65" r="2"/>
            <circle cx="35" cy="65" r="2"/>
            <circle cx="45" cy="65" r="2"/>
            <circle cx="55" cy="65" r="2"/>
            <circle cx="65" cy="65" r="2"/>
            <circle cx="75" cy="65" r="2"/>
      </g>
      <!-- Subtle 3D effect on boxes -->
       <path d="M 42 33 L 43 34 L 59 34 L 58 33 Z" fill="white" opacity="0.1"/>
       <path d="M 58 25 L 59 26 L 59 34 L 58 33 Z" fill="white" opacity="0.1"/>
        <path d="M 27 53 L 28 54 L 44 54 L 43 53 Z" fill="white" opacity="0.1"/>
       <path d="M 43 45 L 44 46 L 44 54 L 43 53 Z" fill="white" opacity="0.1"/>
       <!-- ... add similar subtle highlights for other boxes if desired ... -->

  </g>

  <!-- Overall Highlight Sheen -->
  <path d="M 50,12 L 85,32 L 82,50 L 85,68 L 50,88 L 15,68 L 18,50 L 15,32 Z"
          fill="url(#adminHighlightShine)"/>

</svg>