<svg width="100" height="100" viewBox="0 0 100 100" xmlns="http://www.w3.org/2000/svg" xmlns:xlink="http://www.w3.org/1999/xlink">

  <defs>
    <!-- Gradient for the main badge body -->
    <linearGradient id="imBadgeGradient" x1="0%" y1="0%" x2="0%" y2="100%">
      <stop offset="0%" style="stop-color:#00897B; stop-opacity:1" /> <!-- Teal -->
      <stop offset="100%" style="stop-color:#004D40; stop-opacity:1" /> <!-- Darker Teal -->
    </linearGradient>
    <!-- Gradient for the border -->
    <linearGradient id="imBorderGradient" x1="0%" y1="0%" x2="0%" y2="100%">
      <stop offset="0%" style="stop-color:#CFD8DC; stop-opacity:1" /> <!-- Light Silver/Grey -->
      <stop offset="100%" style="stop-color:#78909C; stop-opacity:1" /> <!-- Darker Silver/Grey -->
    </linearGradient>
    <!-- Gradient for Stethoscope Metal -->
    <linearGradient id="metalGradient" x1="0%" y1="0%" x2="100%" y2="100%">
      <stop offset="0%" style="stop-color:#ECEFF1; stop-opacity:1" />
      <stop offset="50%" style="stop-color:#B0BEC5; stop-opacity:1" />
      <stop offset="100%" style="stop-color:#90A4AE; stop-opacity:1" />
    </linearGradient>
     <!-- Gradient for the snake -->
    <linearGradient id="snakeGradient" x1="0%" y1="0%" x2="100%" y2="0%">
      <stop offset="0%" style="stop-color:#FDD835; stop-opacity:1" /> <!-- Yellow/Gold -->
      <stop offset="100%" style="stop-color:#FBC02D; stop-opacity:1" /> <!-- Darker Gold -->
    </linearGradient>
  </defs>

  <!-- Badge Border -->
  <path d="M 50,5
           L 90,20
           Q 95,40 90,60
           L 85,80
           Q 80,95 50,95
           Q 20,95 15,80
           L 10,60
           Q 5,40 10,20
           Z"
        fill="url(#imBorderGradient)" stroke="#455A64" stroke-width="1.5"/>

  <!-- Main Badge Shape -->
  <path d="M 50,10
           L 85,25
           Q 89,40 85,58
           L 80,77
           Q 76,90 50,90
           Q 24,90 20,77
           L 15,58
           Q 11,40 15,25
           Z"
        fill="url(#imBadgeGradient)" />

  <!-- Stethoscope (behind Rod) -->
  <g transform="translate(0, 2)">
      <!-- Tubing -->
      <path d="M 35,30 C 25,45 25,65 38,75" stroke="#546E7A" stroke-width="4" fill="none" stroke-linecap="round"/>
      <path d="M 65,30 C 75,45 75,65 62,75" stroke="#546E7A" stroke-width="4" fill="none" stroke-linecap="round"/>
      <!-- Bell/Diaphragm -->
      <circle cx="50" cy="80" r="8" fill="url(#metalGradient)" stroke="#546E7A" stroke-width="1"/>
      <circle cx="50" cy="80" r="5" fill="#B0BEC5" stroke="#546E7A" stroke-width="0.5"/>
       <!-- Earpieces -->
       <circle cx="35" cy="30" r="4" fill="url(#metalGradient)" stroke="#546E7A" stroke-width="1"/>
       <circle cx="65" cy="30" r="4" fill="url(#metalGradient)" stroke="#546E7A" stroke-width="1"/>
  </g>

  <!-- Rod of Asclepius (Staff and Snake) -->
  <g transform="translate(0, -2)">
    <!-- Staff -->
    <rect x="47.5" y="25" width="5" height="55" rx="1.5" ry="1.5" fill="#8D6E63" stroke="#4E342E" stroke-width="0.5"/>

    <!-- Snake -->
    <path d="M 48,75
             C 40,70 40,60 50,55
             C 60,50 60,40 52,35
             C 47,32 47,28 50,25"
          fill="none" stroke="url(#snakeGradient)" stroke-width="4" stroke-linecap="round"/>
    <!-- Snake Head (simple circle) -->
    <circle cx="51" cy="24" r="3" fill="url(#snakeGradient)" stroke="#E65100" stroke-width="0.5"/>
  </g>

</svg>