<svg width="100" height="100" viewBox="0 0 100 100" xmlns="http://www.w3.org/2000/svg" xmlns:xlink="http://www.w3.org/1999/xlink">

  <defs>
    <!-- Gradient for the main badge body - Deep Blue/Purple -->
    <linearGradient id="nucmedBadgeGradient" x1="0%" y1="0%" x2="100%" y2="100%">
      <stop offset="0%" style="stop-color:#303F9F; stop-opacity:1" /> <!-- Indigo -->
      <stop offset="100%" style="stop-color:#673AB7; stop-opacity:1" /> <!-- Deep Purple -->
    </linearGradient>
    <!-- Gradient for the border - Steel/Silver -->
    <linearGradient id="nucmedBorderGradient" x1="0%" y1="0%" x2="0%" y2="100%">
      <stop offset="0%" style="stop-color:#B0BEC5; stop-opacity:1" />
      <stop offset="100%" style="stop-color:#78909C; stop-opacity:1" />
    </linearGradient>
    <!-- Gradient for the Trefoil Symbol - Glowing Green -->
     <radialGradient id="trefoilGradient" cx="50%" cy="50%" r="60%">
      <stop offset="0%" style="stop-color:#A5D6A7; stop-opacity:1" /> <!-- Lighter Green -->
      <stop offset="100%" style="stop-color:#4CAF50; stop-opacity:1" /> <!-- Green -->
    </radialGradient>
     <!-- Gradient for electron paths - Light Cyan/White -->
     <linearGradient id="orbitGradient" x1="0%" y1="0%" x2="100%" y2="0%">
      <stop offset="0%" style="stop-color:#E0F7FA; stop-opacity:0.8" />
      <stop offset="100%" style="stop-color:#FFFFFF; stop-opacity:1" />
    </linearGradient>
  </defs>

  <!-- Badge Border -->
  <path d="M 50,5
           L 85,20 L 95,50 L 85,80
           L 50,95
           L 15,80 L 5,50 L 15,20
           Z"
        fill="url(#nucmedBorderGradient)" stroke="#455A64" stroke-width="1.5"/>

  <!-- Main Badge Shape (Slightly smaller inset) -->
  <path d="M 50,10
           L 82,23 L 90,50 L 82,77
           L 50,90
           L 18,77 L 10,50 L 18,23
           Z"
        fill="url(#nucmedBadgeGradient)" />

  <!-- Central Symbol: Atom Orbits + Trefoil -->
  <g transform="translate(0, 0)">

      <!-- Stylized Atom Orbits -->
      <ellipse cx="50" cy="50" rx="28" ry="12"
               stroke="url(#orbitGradient)" stroke-width="2" fill="none"
               transform="rotate(45 50 50)"/>
      <ellipse cx="50" cy="50" rx="28" ry="12"
               stroke="url(#orbitGradient)" stroke-width="2" fill="none"
               transform="rotate(-45 50 50)"/>
       <ellipse cx="50" cy="50" rx="25" ry="25"
               stroke="url(#orbitGradient)" stroke-width="1.5" fill="none"
               stroke-dasharray="4 2" stroke-opacity="0.7"/>


      <!-- Trefoil Symbol (Radiation Symbol ☢️) -->
      <g transform="translate(50 50) scale(0.35)"> <!-- Center and scale the trefoil group -->
         <defs>
           <path id="blade" d="M 0, -35 A 35,35 0 0 1 30.31, -17.5 L 0,0 Z"/>
         </defs>
         <circle cx="0" cy="0" r="10" fill="url(#trefoilGradient)" stroke="#2E7D32" stroke-width="2"/>
         <use xlink:href="#blade" fill="url(#trefoilGradient)" stroke="#2E7D32" stroke-width="2"/>
         <use xlink:href="#blade" transform="rotate(120)" fill="url(#trefoilGradient)" stroke="#2E7D32" stroke-width="2"/>
         <use xlink:href="#blade" transform="rotate(240)" fill="url(#trefoilGradient)" stroke="#2E7D32" stroke-width="2"/>
       </g>
  </g>

</svg>