<svg width="100" height="100" viewBox="0 0 100 100" xmlns="http://www.w3.org/2000/svg" xmlns:xlink="http://www.w3.org/1999/xlink">

  <defs>
    <!-- Gradient for the main badge body - Soft Pink/Peach -->
    <linearGradient id="obsBadgeGradient" x1="0%" y1="0%" x2="0%" y2="100%">
      <stop offset="0%" style="stop-color:#FFCCBC; stop-opacity:1" /> <!-- Light Peach -->
      <stop offset="100%" style="stop-color:#FFAB91; stop-opacity:1" /> <!-- Deeper Peach -->
    </linearGradient>
    <!-- Gradient for the border - Rose Gold/Soft Gold -->
    <linearGradient id="obsBorderGradient" x1="0%" y1="0%" x2="0%" y2="100%">
      <stop offset="0%" style="stop-color:#F8BBD0; stop-opacity:1" /> <!-- Light Pink -->
      <stop offset="100%" style="stop-color:#E91E63; stop-opacity:1" /> <!-- Medium Pink/Rose -->
    </linearGradient>
    <!-- Gradient for the sparkle -->
     <radialGradient id="sparkleGradient" cx="50%" cy="50%" r="50%" fx="50%" fy="50%">
      <stop offset="0%" style="stop-color:#FFFFFF; stop-opacity:1" />
      <stop offset="60%" style="stop-color:#FFF59D; stop-opacity:1" /> <!-- Pale Yellow -->
      <stop offset="100%" style="stop-color:#FFEE58; stop-opacity:0.8" /> <!-- Brighter Yellow -->
    </radialGradient>
     <!-- Gradient for the main curve -->
     <linearGradient id="curveGradient" x1="0%" y1="0%" x2="100%" y2="0%">
      <stop offset="0%" style="stop-color:#F48FB1; stop-opacity:1" /> <!-- Lighter Pink -->
      <stop offset="100%" style="stop-color:#EC407A; stop-opacity:1" /> <!-- Stronger Pink -->
    </linearGradient>
  </defs>

  <!-- Badge Border -->
  <path d="M 50,5
           C 20,10 5,35 10,60
           Q 15,95 50,95
           Q 85,95 90,60
           C 95,35 80,10 50,5 Z"
        fill="url(#obsBorderGradient)" stroke="#AD1457" stroke-width="1.5"/>

  <!-- Main Badge Shape (Slightly smaller inset) -->
  <path d="M 50,10
           C 25,15 12,38 16,62
           Q 20,90 50,90
           Q 80,90 84,62
           C 88,38 75,15 50,10 Z"
        fill="url(#obsBadgeGradient)" />

  <!-- Abstract Pregnant Curve -->
  <path d="M 30 75 Q 50 40 70 75"
        fill="none"
        stroke="url(#curveGradient)"
        stroke-width="7"
        stroke-linecap="round" />

  <!-- Sparkle/New Life Symbol -->
   <g transform="translate(65 48)"> <!-- Position the sparkle -->
      <polygon points="0,-10 2,-2 10,0 2,2 0,10 -2,2 -10,0 -2,-2"
               fill="url(#sparkleGradient)"
               stroke="#FBC02D" stroke-width="0.5"/>
   </g>

</svg>