<svg width="100" height="100" viewBox="0 0 100 100" xmlns="http://www.w3.org/2000/svg" xmlns:xlink="http://www.w3.org/1999/xlink">

  <defs>
    <!-- Gradient for the main badge body - Steel Blue/Grey -->
    <linearGradient id="orthoBadgeGradient" x1="0%" y1="0%" x2="100%" y2="100%">
      <stop offset="0%" style="stop-color:#78909C; stop-opacity:1" /> <!-- Blue Grey -->
      <stop offset="100%" style="stop-color:#455A64; stop-opacity:1" /> <!-- Darker Blue Grey -->
    </linearGradient>
    <!-- Gradient for the border - Silver -->
    <linearGradient id="orthoBorderGradient" x1="0%" y1="0%" x2="0%" y2="100%">
      <stop offset="0%" style="stop-color:#B0BEC5; stop-opacity:1" />
      <stop offset="100%" style="stop-color:#78909C; stop-opacity:1" />
    </linearGradient>
    <!-- Gradient for the Bones - Ivory/Light Grey -->
    <linearGradient id="boneGradientOrtho" x1="0%" y1="0%" x2="100%" y2="100%">
       <stop offset="0%" style="stop-color:#FFFFFF; stop-opacity:1" />
       <stop offset="50%" style="stop-color:#ECEFF1; stop-opacity:1" /> <!-- Off white -->
       <stop offset="100%" style="stop-color:#CFD8DC; stop-opacity:1" /> <!-- Light blue grey -->
    </linearGradient>
  </defs>

  <!-- Badge Border -->
  <path d="M 20,5
           L 80,5
           L 95,35 L 95,65
           L 80,95 L 20,95
           L 5,65 L 5,35
           Z"
        fill="url(#orthoBorderGradient)" stroke="#37474F" stroke-width="1.5"/>

  <!-- Main Badge Shape (Slightly smaller inset) -->
  <path d="M 23,10
           L 77,10
           L 90,37 L 90,63
           L 77,90 L 23,90
           L 10,63 L 10,37
           Z"
        fill="url(#orthoBadgeGradient)" />

  <!-- Central Symbol: Stylized Crossed Bones -->
  <g transform="translate(50 50)"> <!-- Center the group -->
    <!-- Bone 1 (rotated -45 deg) -->
    <rect x="-25" y="-5" width="50" height="10" rx="5" ry="5"
          transform="rotate(-45)"
          fill="url(#boneGradientOrtho)" stroke="#78909C" stroke-width="0.7"/>
    <!-- Bone 2 (rotated 45 deg) -->
    <rect x="-25" y="-5" width="50" height="10" rx="5" ry="5"
          transform="rotate(45)"
          fill="url(#boneGradientOrtho)" stroke="#78909C" stroke-width="0.7"/>
  </g>

</svg>