<svg width="100" height="100" viewBox="0 0 100 100" xmlns="http://www.w3.org/2000/svg" xmlns:xlink="http://www.w3.org/1999/xlink">

  <defs>
    <!-- Base gradient for the main badge - Dark Steel Blue -->
    <linearGradient id="orthoHDBadgeBase" x1="0%" y1="0%" x2="100%" y2="100%">
      <stop offset="0%" style="stop-color:#546E7A; stop-opacity:1" />
      <stop offset="100%" style="stop-color:#37474F; stop-opacity:1" />
    </linearGradient>
    <!-- Inner facet gradient - Slightly Lighter Steel -->
    <linearGradient id="orthoHDFacet" x1="0%" y1="0%" x2="100%" y2="100%">
      <stop offset="0%" style="stop-color:#78909C; stop-opacity:1" />
      <stop offset="100%" style="stop-color:#546E7A; stop-opacity:1" />
    </linearGradient>
    <!-- Border gradient - Bright Silver -->
    <linearGradient id="orthoHDBorder" x1="0%" y1="0%" x2="0%" y2="100%">
      <stop offset="0%" style="stop-color:#ECEFF1; stop-opacity:1" /> <!-- Brightest silver -->
      <stop offset="50%" style="stop-color:#B0BEC5; stop-opacity:1" />
      <stop offset="100%" style="stop-color:#90A4AE; stop-opacity:1" /> <!-- Darker silver -->
    </linearGradient>
    <!-- Implant Metal gradient - Titanium/Shiny Steel -->
    <linearGradient id="implantMetalGradient" x1="0%" y1="0%" x2="80%" y2="100%">
       <stop offset="0%" style="stop-color:#FFFFFF; stop-opacity:1" />
       <stop offset="40%" style="stop-color:#E0E0E0; stop-opacity:1" />
       <stop offset="100%" style="stop-color:#BDBDBD; stop-opacity:1" />
    </linearGradient>
    <!-- Bone gradient - Detailed Ivory/Off-white -->
    <linearGradient id="boneTextureGradient" x1="0%" y1="0%" x2="100%" y2="100%">
       <stop offset="0%" style="stop-color:#FFFDE7; stop-opacity:1" /> <!-- Creamy white -->
       <stop offset="50%" style="stop-color:#FFF8E1; stop-opacity:1" />
       <stop offset="100%" style="stop-color:#FFECB3; stop-opacity:1" /> <!-- Pale yellow/ivory -->
    </linearGradient>
    <!-- Highlight effect -->
    <radialGradient id="highlightShine" cx="30%" cy="30%" r="70%">
        <stop offset="0%" style="stop-color:white; stop-opacity:0.4;"/>
        <stop offset="100%" style="stop-color:white; stop-opacity:0;"/>
    </radialGradient>
  </defs>

  <!-- Badge Structure -->
  <g>
    <!-- Outermost Border -->
    <path d="M 50,3 L 97,25 L 90,75 L 50,97 L 10,75 L 3,25 Z"
          fill="url(#orthoHDBorder)" stroke="#455A64" stroke-width="1"/>
    <!-- Mid Layer Border -->
     <path d="M 50,6 L 92,27 L 86,73 L 50,93 L 14,73 L 8,27 Z"
          fill="url(#orthoHDBadgeBase)" stroke="#78909C" stroke-width="0.5"/>
    <!-- Inner Faceted Layer -->
    <path d="M 50,12
             L 85,32 L 82,68 L 50,88 L 18,68 L 15,32 Z"
          fill="url(#orthoHDFacet)" stroke="#B0BEC5" stroke-width="0.7"/>
     <!-- Innermost Base -->
      <path d="M 50,15
             L 82,35 L 79,66 L 50,85 L 21,66 L 18,35 Z"
          fill="url(#orthoHDBadgeBase)" />
  </g>

  <!-- Central Symbol: Detailed Hip Replacement -->
  <g transform="translate(0, 0)"> <!-- Adjust position slightly if needed -->

      <!-- Acetabular Cup (Socket) - representing Pelvis side -->
       <path d="M 35,55 A 15 15 0 0 1 65 55" fill="url(#implantMetalGradient)" stroke="#616161" stroke-width="1"/>
       <path d="M 38,56 A 12 12 0 0 1 62 56" fill="#78909C" /> <!-- Inner dark part of socket -->
       <!-- Stylized bone around cup -->
       <path d="M 30,58 C 35,65 65,65 70,58 A 20 20 0 0 0 30 58 Z" fill="url(#boneTextureGradient)" stroke="#A1887F" stroke-width="0.5" filter="url(#slightBlur)"/>


      <!-- Femoral Component (Stem and Ball) -->
      <g transform="translate(50 65) rotate(15)"> <!-- Position and slightly rotate stem -->
         <!-- Stem Shaft -->
         <path d="M -4,-10 L 4,-10 L 6,25 L -6,25 Z" fill="url(#implantMetalGradient)" stroke="#616161" stroke-width="0.8"/>
         <!-- Neck -->
          <path d="M -8,-15 L 8,-15 L 4,-10 L -4,-10 Z" transform="rotate(-30 0 -12)" fill="url(#implantMetalGradient)" stroke="#616161" stroke-width="0.8"/>
         <!-- Ball Head -->
         <circle cx="-13" cy="-23" r="7" fill="url(#implantMetalGradient)" stroke="#616161" stroke-width="1"/>
          <!-- Highlight on Ball Head -->
         <circle cx="-14.5" cy="-24.5" r="2.5" fill="white" opacity="0.7"/>
      </g>

       <!-- Stylized femur bone around stem -->
        <path d="M 42,78 L 44,90 L 56,90 L 58,78 C 55,75 45,75 42,78 Z" fill="url(#boneTextureGradient)" stroke="#A1887F" stroke-width="0.5"/>

  </g>

  <!-- Overall Highlight Sheen -->
  <path d="M 50,12
             L 85,32 L 82,68 L 50,88 L 18,68 L 15,32 Z"
          fill="url(#highlightShine)"/>

</svg>