<svg width="100" height="100" viewBox="0 0 100 100" xmlns="http://www.w3.org/2000/svg" xmlns:xlink="http://www.w3.org/1999/xlink">

  <defs>
    <!-- Gradient for the main badge body - Cheerful Teal/Aqua -->
    <linearGradient id="pedsBadgeGradient" x1="0%" y1="0%" x2="0%" y2="100%">
      <stop offset="0%" style="stop-color:#4DD0E1; stop-opacity:1" /> <!-- Light Cyan -->
      <stop offset="100%" style="stop-color:#00ACC1; stop-opacity:1" /> <!-- Cyan -->
    </linearGradient>
    <!-- Gradient for the border - Soft Gold/Yellow -->
    <linearGradient id="pedsBorderGradient" x1="0%" y1="0%" x2="0%" y2="100%">
      <stop offset="0%" style="stop-color:#FFF59D; stop-opacity:1" /> <!-- Pale Yellow -->
      <stop offset="100%" style="stop-color:#FBC02D; stop-opacity:1" /> <!-- Amber -->
    </linearGradient>
    <!-- Simple Red for Heart -->
    <radialGradient id="heartGradient" cx="50%" cy="50%" r="70%">
       <stop offset="0%" style="stop-color:#EF5350; stop-opacity:1" /> <!-- Light Red -->
       <stop offset="100%" style="stop-color:#D32F2F; stop-opacity:1" /> <!-- Red -->
    </radialGradient>
  </defs>

  <!-- Badge Border -->
  <path d="M 50,5
           C 20,5 5,30 5,50
           S 20,95 50,95
           S 95,70 95,50
           S 80,5 50,5 Z"
        fill="url(#pedsBorderGradient)" stroke="#E65100" stroke-width="1.5"/> <!-- Orange-brown stroke for gold -->

  <!-- Main Badge Shape (Slightly smaller inset) -->
  <path d="M 50,10
           C 25,10 10,33 10,50
           S 25,90 50,90
           S 90,67 90,50
           S 75,10 50,10 Z"
        fill="url(#pedsBadgeGradient)" />

  <!-- Building Blocks -->
  <g transform="translate(0, 5)"> <!-- Nudge blocks down slightly -->
    <!-- Bottom Block (Blue) -->
    <rect x="30" y="60" width="40" height="15" rx="2" ry="2" fill="#64B5F6" stroke="#1976D2" stroke-width="1"/>
    <!-- Middle Block (Green) -->
    <rect x="35" y="46" width="30" height="15" rx="2" ry="2" fill="#81C784" stroke="#388E3C" stroke-width="1"/>
    <!-- Top Block (Yellow) -->
    <rect x="40" y="32" width="20" height="15" rx="2" ry="2" fill="#FFF176" stroke="#FBC02D" stroke-width="1"/>
  </g>

  <!-- Heart Symbol -->
  <g transform="translate(50, 35) scale(0.15)"> <!-- Position and scale the heart -->
      <path d="M 0, -30
               C -30, -50 -60, -30 -60, 0
               C -60, 30 -30, 50 0, 70
               C 30, 50 60, 30 60, 0
               C 60, -30 30, -50 0, -30 Z"
            fill="url(#heartGradient)" stroke="#C62828" stroke-width="8"/> <!-- Scale stroke width -->
  </g>

</svg>