<svg width="100" height="100" viewBox="0 0 100 100" xmlns="http://www.w3.org/2000/svg" xmlns:xlink="http://www.w3.org/1999/xlink">

  <defs>
    <!-- Gradient for the main badge body - Bright Aqua -->
    <linearGradient id="pedsBadgeGradientV2" x1="0%" y1="0%" x2="0%" y2="100%">
      <stop offset="0%" style="stop-color:#4FC3F7; stop-opacity:1" /> <!-- Lighter Blue -->
      <stop offset="100%" style="stop-color:#03A9F4; stop-opacity:1" /> <!-- Light Blue -->
    </linearGradient>
    <!-- Gradient for the border - Sunny Yellow -->
    <linearGradient id="pedsBorderGradientV2" x1="0%" y1="0%" x2="0%" y2="100%">
      <stop offset="0%" style="stop-color:#FFF176; stop-opacity:1" /> <!-- Light Yellow -->
      <stop offset="100%" style="stop-color:#FFD54F; stop-opacity:1" /> <!-- Amber Yellow -->
    </linearGradient>
    <!-- Simple Red for Heart -->
    <radialGradient id="heartGradientV2" cx="50%" cy="50%" r="70%">
       <stop offset="0%" style="stop-color:#FF8A65; stop-opacity:1" /> <!-- Light Red/Orange -->
       <stop offset="100%" style="stop-color:#F4511E; stop-opacity:1" /> <!-- Deep Orange -->
    </radialGradient>
    <!-- Solid Block Colors -->
    <color id="blockBlue">#42A5F5</color> <!-- Medium Blue -->
    <color id="blockGreen">#66BB6A</color> <!-- Medium Green -->
    <color id="blockRed">#EF5350</color> <!-- Medium Red -->

  </defs>

  <!-- Badge Border -->
  <path d="M 50,5
           C 25,5 10,25 10,50
           C 10,75 25,95 50,95
           C 75,95 90,75 90,50
           C 90,25 75,5 50,5 Z"
        fill="url(#pedsBorderGradientV2)" stroke="#FFA000" stroke-width="1.5"/> <!-- Orange stroke for gold -->

  <!-- Main Badge Shape (Slightly smaller inset) -->
  <path d="M 50,10
           C 30,10 15,28 15,50
           C 15,72 30,90 50,90
           C 70,90 85,72 85,50
           C 85,28 70,10 50,10 Z"
        fill="url(#pedsBadgeGradientV2)" />

  <!-- Building Blocks -->
  <g transform="translate(0, 5)"> <!-- Nudge blocks down slightly -->
    <!-- Bottom Block (Blue) -->
    <rect x="30" y="60" width="40" height="15" rx="2" ry="2" fill="#42A5F5" stroke="#1E88E5" stroke-width="1"/>
    <!-- Middle Block (Green) -->
    <rect x="35" y="46" width="30" height="15" rx="2" ry="2" fill="#66BB6A" stroke="#43A047" stroke-width="1"/>
    <!-- Top Block (Red) -->
    <rect x="40" y="32" width="20" height="15" rx="2" ry="2" fill="#EF5350" stroke="#E53935" stroke-width="1"/>
  </g>

  <!-- Heart Symbol -->
  <g transform="translate(50, 28) scale(0.13)"> <!-- Position and scale the heart slightly higher -->
      <path d="M 0, -30
               C -30, -50 -60, -30 -60, 0
               C -60, 30 -30, 50 0, 70
               C 30, 50 60, 30 60, 0
               C 60, -30 30, -50 0, -30 Z"
            fill="url(#heartGradientV2)" stroke="#D84315" stroke-width="8"/> <!-- Scale stroke width -->
  </g>

</svg>