<svg width="100" height="100" viewBox="0 0 100 100" xmlns="http://www.w3.org/2000/svg" xmlns:xlink="http://www.w3.org/1999/xlink">

  <defs>
    <!-- Gradient for the main badge body -->
    <linearGradient id="badgeGradient" x1="0%" y1="0%" x2="0%" y2="100%">
      <stop offset="0%" style="stop-color:#4A90E2; stop-opacity:1" />
      <stop offset="100%" style="stop-color:#3A7BC8; stop-opacity:1" />
    </linearGradient>
    <!-- Gradient for the border -->
    <linearGradient id="borderGradient" x1="0%" y1="0%" x2="0%" y2="100%">
      <stop offset="0%" style="stop-color:#E0E0E0; stop-opacity:1" />
      <stop offset="100%" style="stop-color:#A0A0A0; stop-opacity:1" />
    </linearGradient>
     <!-- Simple gradient for the lens -->
    <radialGradient id="lensGradient" cx="50%" cy="50%" r="50%" fx="50%" fy="50%">
      <stop offset="0%" style="stop-color:#FFFFFF; stop-opacity:0.3" />
      <stop offset="100%" style="stop-color:#FFFFFF; stop-opacity:0.1" />
    </radialGradient>
  </defs>

  <!-- Badge Border -->
  <path d="M 50,5
           L 90,25
           L 90,75
           Q 90,95 70,90
           L 50,95
           L 30,90
           Q 10,95 10,75
           L 10,25
           Z"
        fill="url(#borderGradient)" stroke="#555" stroke-width="1.5"/>

  <!-- Main Badge Shape -->
  <path d="M 50,10
           L 85,30
           L 85,70
           Q 85,88 68,84
           L 50,90
           L 32,84
           Q 15,88 15,70
           L 15,30
           Z"
        fill="url(#badgeGradient)" />

  <!-- Magnifying Glass -->
  <g transform="translate(0, -5)">
    <!-- Handle -->
    <rect x="62" y="58" width="10" height="25" rx="3" ry="3" transform="rotate(45 67 70.5)" fill="#B0BEC5" stroke="#78909C" stroke-width="1"/>
    <!-- Rim -->
    <circle cx="50" cy="48" r="22" fill="none" stroke="#78909C" stroke-width="4"/>
    <!-- Lens Effect -->
    <circle cx="50" cy="48" r="22" fill="url(#lensGradient)" />

    <!-- Stylized Cluster/Network (Dots representing cases/population) -->
    <g fill="#FF7043" stroke="#D84315" stroke-width="0.5">
        <circle cx="50" cy="48" r="4"/>
        <circle cx="42" cy="43" r="3"/>
        <circle cx="58" cy="43" r="3"/>
        <circle cx="45" cy="55" r="3"/>
        <circle cx="55" cy="55" r="3"/>
        <!-- Lines connecting (optional, can make it busy) -->
        <!-- <line x1="50" y1="48" x2="42" y2="43" stroke="#D84315" stroke-width="0.7"/> -->
        <!-- <line x1="50" y1="48" x2="58" y2="43" stroke="#D84315" stroke-width="0.7"/> -->
        <!-- <line x1="50" y1="48" x2="45" y2="55" stroke="#D84315" stroke-width="0.7"/> -->
        <!-- <line x1="50" y1="48" x2="55" y2="55" stroke="#D84315" stroke-width="0.7"/> -->
    </g>
  </g>

</svg>