<svg width="100" height="100" viewBox="0 0 100 100" xmlns="http://www.w3.org/2000/svg" xmlns:xlink="http://www.w3.org/1999/xlink">

  <defs>
    <!-- Gradient for the main badge body - Dark Blue/Black -->
    <linearGradient id="radioBadgeGradient" x1="0%" y1="0%" x2="0%" y2="100%">
      <stop offset="0%" style="stop-color:#263238; stop-opacity:1" /> <!-- Dark Blue Grey -->
      <stop offset="100%" style="stop-color:#1a1a1a; stop-opacity:1" /> <!-- Near Black -->
    </linearGradient>
    <!-- Gradient for the border - Steel Grey -->
    <linearGradient id="radioBorderGradient" x1="0%" y1="0%" x2="0%" y2="100%">
      <stop offset="0%" style="stop-color:#90A4AE; stop-opacity:1" /> <!-- Medium Grey -->
      <stop offset="100%" style="stop-color:#546E7A; stop-opacity:1" /> <!-- Darker Grey -->
    </linearGradient>
    <!-- Gradient for the X-ray bones - Glowing White/Light Cyan -->
     <linearGradient id="boneGradient" x1="0%" y1="0%" x2="100%" y2="100%">
      <stop offset="0%" style="stop-color:#FFFFFF; stop-opacity:1" />
      <stop offset="100%" style="stop-color:#E0F7FA; stop-opacity:0.9" /> <!-- Very Light Cyan -->
    </linearGradient>
  </defs>

  <!-- Badge Border -->
  <path d="M 50,5
           L 90,25
           L 95,50
           L 90,75
           L 50,95
           L 10,75
           L 5,50
           L 10,25
           Z"
        fill="url(#radioBorderGradient)" stroke="#37474F" stroke-width="1.5"/>

  <!-- Main Badge Shape (Slightly smaller inset) -->
  <path d="M 50,10
           L 86,28
           L 90,50
           L 86,72
           L 50,90
           L 14,72
           L 10,50
           L 14,28
           Z"
        fill="url(#radioBadgeGradient)" />

  <!-- Stylized X-ray (Rib Cage) -->
  <g fill="none" stroke="url(#boneGradient)" stroke-width="3.5" stroke-linecap="round" stroke-linejoin="round">
      <!-- Spine -->
      <path d="M 50 30 V 70" />
      <!-- Ribs -->
      <path d="M 50 35 C 35 35, 30 45, 30 50 C 30 55, 35 65, 50 65" />
      <path d="M 50 35 C 65 35, 70 45, 70 50 C 70 55, 65 65, 50 65" />
      <!-- Clavicles (simplified) -->
      <path d="M 50 30 C 40 30, 35 35, 30 38" />
      <path d="M 50 30 C 60 30, 65 35, 70 38" />
  </g>

  <!-- Subtle Scan Lines Effect (Optional) -->
  <g stroke="#B0BEC5" stroke-width="0.5" stroke-opacity="0.3">
      <line x1="15" y1="40" x2="85" y2="40" />
      <line x1="15" y1="50" x2="85" y2="50" />
      <line x1="15" y1="60" x2="85" y2="60" />
  </g>


</svg>