<svg width="100" height="100" viewBox="0 0 100 100" xmlns="http://www.w3.org/2000/svg" xmlns:xlink="http://www.w3.org/1999/xlink">

  <defs>
    <!-- Gradient for the main badge body - Dark Teal/Blue -->
    <linearGradient id="imgBadgeGradient" x1="0%" y1="0%" x2="100%" y2="100%">
      <stop offset="0%" style="stop-color:#004D40; stop-opacity:1" /> <!-- Dark Teal -->
      <stop offset="100%" style="stop-color:#1A237E; stop-opacity:1" /> <!-- Indigo -->
    </linearGradient>
    <!-- Gradient for the border - Cyan/Steel -->
    <linearGradient id="imgBorderGradient" x1="0%" y1="0%" x2="0%" y2="100%">
      <stop offset="0%" style="stop-color:#4DD0E1; stop-opacity:1" /> <!-- Light Cyan -->
      <stop offset="100%" style="stop-color:#0097A7; stop-opacity:1" /> <!-- Cyan -->
    </linearGradient>
    <!-- Gradient for the Trefoil Symbol - Glowing Yellow/Orange -->
     <radialGradient id="imgTrefoilGradient" cx="50%" cy="50%" r="60%">
      <stop offset="0%" style="stop-color:#FFF59D; stop-opacity:1" /> <!-- Pale Yellow -->
      <stop offset="100%" style="stop-color:#FFB300; stop-opacity:1" /> <!-- Amber -->
    </radialGradient>
     <!-- Gradient for electron paths/scan beams - Bright Cyan -->
     <linearGradient id="imgOrbitGradient" x1="0%" y1="0%" x2="100%" y2="0%">
      <stop offset="0%" style="stop-color:#E0F7FA; stop-opacity:1" />
      <stop offset="100%" style="stop-color:#80DEEA; stop-opacity:1" />
    </linearGradient>
    <!-- Faint background pattern for Radiology aspect -->
    <pattern id="scanPattern" patternUnits="userSpaceOnUse" width="10" height="10">
        <path d="M -1,1 l 2,-2 M 0,10 l 10,-10 M 9,11 l 2,-2" stroke="#B2EBF2" stroke-width="0.5" stroke-opacity="0.2"/>
    </pattern>
  </defs>

  <!-- Badge Border -->
  <path d="M 50,5
           L 80,15 L 95,40 L 90,70 L 65,95
           L 35,95 L 10,70 L 5,40 L 20,15
           Z"
        fill="url(#imgBorderGradient)" stroke="#006064" stroke-width="1.5"/>

  <!-- Main Badge Shape (Slightly smaller inset) -->
  <path d="M 50,10
           L 77,19 L 90,42 L 86,68 L 63,90
           L 37,90 L 14,68 L 10,42 L 23,19
           Z"
        fill="url(#imgBadgeGradient)" />

   <!-- Faint background scan pattern -->
   <rect x="10" y="10" width="80" height="80" fill="url(#scanPattern)" />


  <!-- Central Symbol: Atom Orbits + Trefoil -->
  <g transform="translate(0, 0)">

      <!-- Stylized Atom Orbits / Scan paths -->
      <ellipse cx="50" cy="50" rx="30" ry="15"
               stroke="url(#imgOrbitGradient)" stroke-width="3" fill="none"
               transform="rotate(55 50 50)"/>
      <ellipse cx="50" cy="50" rx="30" ry="15"
               stroke="url(#imgOrbitGradient)" stroke-width="3" fill="none"
               transform="rotate(-55 50 50)"/>
      <ellipse cx="50" cy="50" rx="30" ry="10"
                stroke="url(#imgOrbitGradient)" stroke-width="2" fill="none" stroke-dasharray="5 3"
                transform="rotate(0 50 50)"/>


      <!-- Trefoil Symbol (Radiation Symbol ☢️) -->
      <g transform="translate(50 50) scale(0.3)"> <!-- Center and scale the trefoil group -->
         <defs>
           <path id="imgBlade" d="M 0, -35 A 35,35 0 0 1 30.31, -17.5 L 0,0 Z"/>
         </defs>
         <circle cx="0" cy="0" r="10" fill="url(#imgTrefoilGradient)" stroke="#E65100" stroke-width="2"/>
         <use xlink:href="#imgBlade" fill="url(#imgTrefoilGradient)" stroke="#E65100" stroke-width="2"/>
         <use xlink:href="#imgBlade" transform="rotate(120)" fill="url(#imgTrefoilGradient)" stroke="#E65100" stroke-width="2"/>
         <use xlink:href="#imgBlade" transform="rotate(240)" fill="url(#imgTrefoilGradient)" stroke="#E65100" stroke-width="2"/>
       </g>
  </g>

</svg>